<?xml version="1.0" standalone="no"?>
<!DOCTYPE svg PUBLIC "-//W3C//DTD SVG 20010904//EN"
 "http://www.w3.org/TR/2001/REC-SVG-20010904/DTD/svg10.dtd">
<svg version="1.0" xmlns="http://www.w3.org/2000/svg"
 width="700.000000pt" height="700.000000pt" viewBox="0 0 700.000000 700.000000"
 preserveAspectRatio="xMidYMid meet">
<metadata>
Created by potrace 1.14, written by Peter Selinger 2001-2017
</metadata>
<g transform="translate(0.000000,700.000000) scale(0.100000,-0.100000)"
fill="#000000" stroke="none">
<path d="M578 6380 c-258 -147 -483 -277 -500 -289 l-33 -20 0 -1720 -1 -1720
56 31 c30 17 98 56 150 86 94 54 178 102 275 157 28 15 75 42 105 60 58 34
198 115 265 153 22 12 66 36 98 52 l57 30 0 1150 c0 633 3 1150 8 1150 4 0
225 -126 492 -278 l485 -278 0 -596 0 -595 -234 -134 c-130 -74 -260 -148
-291 -165 -30 -17 -194 -110 -363 -207 -170 -98 -311 -177 -314 -177 -4 0 -14
-6 -22 -14 -9 -7 -45 -29 -81 -48 -36 -19 -195 -110 -353 -202 -159 -91 -292
-166 -297 -166 -35 0 -35 -2 -35 -1187 -1 -634 1 -1153 2 -1153 2 0 194 109
426 241 232 133 442 253 467 267 25 13 60 33 78 44 l32 20 0 579 0 579 25 -12
c18 -8 22 -14 13 -19 -7 -4 -10 -10 -8 -12 7 -6 221 -122 355 -192 61 -32 115
-61 120 -65 6 -4 64 -36 130 -70 66 -34 125 -66 130 -70 6 -4 55 -31 110 -60
55 -29 107 -58 115 -64 14 -10 16 -80 15 -584 0 -316 2 -575 5 -577 3 -1 228
125 500 280 l495 284 3 575 c1 415 5 576 13 576 8 0 8 4 1 12 -6 7 -10 17 -9
21 2 9 -6 13 -293 167 -243 129 -263 140 -455 250 -93 53 -189 105 -212 116
-25 11 -42 25 -40 33 2 12 97 70 382 231 28 16 169 96 314 179 146 83 269 151
273 151 4 0 8 3 9 8 0 4 1 522 2 1152 1 630 5 1150 10 1157 5 8 -7 20 -35 36
-147 85 -520 298 -558 319 -25 14 -74 42 -110 63 -36 21 -81 46 -100 57 -19
11 -65 38 -102 59 -36 21 -77 43 -90 48 -13 5 -59 30 -102 55 -43 25 -79 46
-81 46 -1 0 -58 32 -126 71 -119 69 -435 250 -509 292 -19 11 -69 39 -111 63
-42 24 -78 44 -80 43 -2 0 -214 -121 -471 -269z"/>
<path d="M3648 6637 c-2 -7 -3 -1434 -2 -3172 1 -2408 4 -3159 13 -3157 17 3
1085 613 1091 622 3 5 5 303 4 662 0 453 3 655 10 655 10 0 91 45 276 153 64
37 443 253 530 302 25 14 98 56 163 93 65 37 119 66 122 64 2 -2 6 -573 9
-1269 3 -696 6 -1271 6 -1278 0 -13 22 -3 145 68 83 48 306 176 350 200 28 16
176 100 329 188 l279 160 0 2541 c0 1398 -2 2544 -5 2546 -4 4 -718 415 -838
482 -25 14 -92 52 -150 86 -58 33 -108 61 -112 64 -4 2 -7 -285 -8 -637 0
-409 3 -640 10 -640 5 0 7 -7 4 -15 -4 -8 -7 -284 -8 -612 l-1 -596 -530 -304
c-291 -167 -542 -310 -556 -318 l-27 -14 2 1237 c1 680 0 1245 -2 1254 -3 15
-216 142 -550 330 -18 10 -150 85 -292 167 -153 88 -260 145 -262 138z"/>
</g>
</svg>
